<svg viewBox="0 0 100 100" fill="none" xmlns="http://www.w3.org/2000/svg">
  <!-- Rounded background squircle -->
  <rect width="100" height="100" rx="28" fill="#FAF3E8" />
  
  <!-- Geometrically precise 'p' shape with transparent counter hole -->
  <path 
    d="M 34,46 C 34,34.4 43.4,25 55,25 C 66.6,25 76,34.4 76,46 C 76,57.6 66.6,67 55,67 C 47,67 44.5,62.5 44.5,58 C 44.5,67 36,73 29,74 C 32,70 34,64 34,58 L 34,46 Z M 55,35.5 C 49.2,35.5 44.5,40.2 44.5,46 C 44.5,51.8 49.2,56.5 55,56.5 C 60.8,56.5 65.5,51.8 65.5,46 C 65.5,40.2 60.8,35.5 55,35.5 Z" 
    fill="#1E293B" 
    fill-rule="evenodd" 
    clip-rule="evenodd" 
  />
  
  <!-- The bright orange 4-point sparkle -->
  <path 
    d="M 73,16 Q 73,24 81,24 Q 73,24 73,32 Q 73,24 65,24 Q 73,24 73,16 Z" 
    fill="#F2653C" 
  />
</svg>
